<?xml version="1.0" encoding="UTF-8"?>
<svg id="Layer_1" data-name="Layer 1" xmlns="http://www.w3.org/2000/svg" viewBox="0 0 452 368.09">
  <defs>
    <style>
      .cls-1 {
        fill: #352112;
      }
    </style>
  </defs>
  <path class="cls-1" d="M9.79,313.27l100.97-100.97,11.16-11.14,45.09,51.51c.12,4.42-1.51,8.86-4.88,12.23-6.51,6.53-17.02,6.53-23.56,0l-6.63-6.63-69.44,69.44c3.09,11.07-.05,22.93-8.16,31.05-12.44,12.44-32.58,12.44-45.02,0-12.44-12.44-12.42-32.6,0-45.04l.47-.44ZM24.53,329.8c-3.91,3.91-3.91,10.26,0,14.16s10.26,3.91,14.16,0c3.93-3.93,3.91-10.26,0-14.16-3.91-3.91-10.26-3.93-14.16,0Z"/>
  <path class="cls-1" d="M317.26,5.8c8.05-8.05,20.44-7.42,29.07,0l81.6,70.07c-10.46,15.74-45.97,67.07-97,118.06-51.3,51.3-102.88,86.93-118.32,97.16l-84.35-96.32L317.26,5.8ZM324.79,19.5c-3.91,3.91-3.91,10.26,0,14.16,3.91,3.91,10.26,3.91,14.16,0,3.93-3.93,3.91-10.26,0-14.16-3.91-3.91-10.26-3.93-14.16,0ZM218.66,297.95c16.98-11.35,68.02-46.95,118.7-97.62,50.46-50.46,86.02-101.34,97.51-118.53l17.14,14.72s-17.42,40.67-97.6,120.86c-80.16,80.16-120.86,97.6-120.86,97.6l-14.89-17.03Z"/>
</svg>